<?xml version="1.0" encoding="utf-8"?>
<!-- Generator: Adobe Illustrator 26.5.3, SVG Export Plug-In . SVG Version: 6.00 Build 0)  -->
<svg version="1.1" id="Layer_1" xmlns="http://www.w3.org/2000/svg" xmlns:xlink="http://www.w3.org/1999/xlink" x="0px" y="0px"
	 viewBox="0 0 1176 162" style="enable-background:new 0 0 1176 162;" xml:space="preserve">
<style type="text/css">
	.st0{fill:#FFFFFF;}
</style>
<path class="st0" d="M448.5,99.5l-16.8-48.6c-1-2.8-4.9-2.8-5.9,0l-17,48.6l-8.6,24.3l-11.7,33.3c-0.4,1.2-1.6,2.1-3,2.1h-23.8
	c-2.2,0-3.7-2.1-3-4.2L413.3,5c0.4-1.2,1.6-2.1,3-2.1h26.5h0.9L498.7,155c0.7,2-0.8,4.2-3,4.2h-24.4c-1.3,0-2.5-0.8-3-2.1
	l-11.3-33.3L448.5,99.5z"/>
<path class="st0" d="M630.6,107.2c-0.2,34.5-22.1,54.8-52.3,54.8c-14.5,0-25-5.1-31.5-11.2c-1.9-1.8-5-0.7-5.3,1.9l-0.4,3.8
	c-0.2,1.6-1.5,2.8-3.1,2.8h-19.4c-1.7,0-3.1-1.4-3.1-3.1V3.1c0-1.7,1.4-3.1,3.1-3.1h21.2c1.7,0,3.1,1.4,3.1,3.1v55
	c0,2.7,3.2,4.1,5.2,2.3c8-6.8,19.2-10.1,30.4-10.1C608.3,50.3,630.8,70.8,630.6,107.2z M602.5,105.9c0-18.8-12.2-30.7-29.4-30.7
	c-17.1,0-29.4,11.9-29.4,30.7c0,18.8,12.2,30.7,29.4,30.7C590.3,136.6,602.5,124.7,602.5,105.9z"/>
<path class="st0" d="M714.6,156.6c-0.1-0.5-0.2-1.1-0.3-1.7c-0.4-2.5-3.3-3.5-5.2-1.9c-6.1,5.2-15.3,8.9-27.1,8.9
	c-22.3,0-38.6-12.6-38.6-34.3c0-21.3,15.2-33.2,38.6-33.2h27.7c1.7,0,3.1-1.4,3.1-3.1v-0.5c0-13-8.8-18.1-21-18.1
	c-11.3,0-18.8,4.4-23.8,12.3c-0.9,1.4-2.7,1.9-4.2,1.1L649,77.6c-1.6-0.9-2-2.9-1.1-4.4c10.3-16.6,26.9-23,45.8-23
	c24,0,46.5,10.4,46.5,44.5v40.5c0,7.9,0.5,15.6,1.2,20.3c0.3,1.9-1.2,3.6-3.1,3.6h-20.6C716.1,159.2,714.8,158.1,714.6,156.6z
	 M713.1,113.4h-24.4c-11.1,0-16.9,5.5-16.9,13.9c0,8.9,6.4,13.8,17.8,13.8c10.1,0,23.6-5.1,23.6-25.6L713.1,113.4L713.1,113.4z"/>
<path class="st0" d="M812.8,50.3c23.8,0,41.8,12.3,48.6,30.1c0.6,1.6-0.2,3.4-1.8,4l-18.3,7.3c-1.6,0.6-3.3-0.1-4-1.7
	c-4.1-9-13.3-14.6-24-14.6c-16.9,0-27.2,12.4-27.2,30.9c0,19.2,10.9,30.5,27.2,30.5c10.9,0,20.1-5.5,24.4-14.2
	c0.7-1.5,2.4-2.2,3.9-1.6l17.8,6.6c1.7,0.6,2.5,2.5,1.8,4.1c-7.7,18.7-26.4,30.2-48.6,30.2c-32.8,0-54.7-22.2-54.7-55.6
	C757.9,72.7,779.8,50.3,812.8,50.3z"/>
<path class="st0" d="M957.8,156.8c-0.1-0.6-0.3-1.1-0.4-1.7c-0.5-2.4-3.3-3.4-5.2-1.8c-6.6,5.9-15.9,8.7-26.4,8.7
	c-19.9,0-44-8.9-44-44.1V56.6c0-1.7,1.4-3.1,3.1-3.1h21.8c1.7,0,3.1,1.4,3.1,3.1v55.7c0,21.7,14.2,24.9,21.9,24.9
	c9.2,0,24-4.9,24-25.1V56.6c0-1.7,1.4-3.1,3.1-3.1h21.8c1.7,0,3.1,1.4,3.1,3.1v83c0,4,0.5,10.9,1.4,16c0.3,1.9-1.2,3.6-3.1,3.6
	h-21.4C959.4,159.2,958.1,158.2,957.8,156.8z"/>
<path class="st0" d="M1175.8,92.5v63.6c0,1.7-1.4,3.1-3.1,3.1h-20.7c-1.7,0-3.1-1.4-3.1-3.1V96.8c0-14.7-7.9-22.2-19.9-22.2
	c-11.6,0-21.4,7.3-21.4,24.7v56.8c0,1.7-1.4,3.1-3.1,3.1h-21.2c-1.7,0-3.1-1.4-3.1-3.1V96.6c0-14.3-7.7-21.9-19.7-21.9
	c-11.6,0-21.4,7.5-21.4,24.7v56.8c0,1.7-1.4,3.1-3.1,3.1h-21.8c-1.7,0-3.1-1.4-3.1-3.1V56.6c0-1.7,1.4-3.1,3.1-3.1h20
	c1.6,0,2.9,1.2,3.1,2.8c0.3,2.5,3.3,3.6,5.2,2c6.2-5.3,15.1-7.9,25.4-7.9c13.9,0,25,5.1,31.9,14.8c1.3,1.8,3.9,1.7,5.2-0.1
	c6.2-9.1,17.1-14.7,31.6-14.7C1159.5,50.3,1175.8,65.2,1175.8,92.5z"/>
<path class="st0" d="M38.4,124.3c21.2,0,38.4-17.5,38.4-39s-17.2-39-38.4-39S0,63.7,0,85.3S17.2,124.3,38.4,124.3z"/>
<path class="st0" d="M102.5,85.3c0-7.2,5.7-13,12.8-13h51.2c7.1,0,12.8,5.8,12.8,13c0,7.2-5.7,13-12.8,13h-51.2
	C108.2,98.3,102.5,92.5,102.5,85.3z"/>
<path class="st0" d="M243.4,124.3c21.2,0,38.4-17.5,38.4-39s-17.2-39-38.4-39c-21.2,0-38.4,17.5-38.4,39S222.2,124.3,243.4,124.3z"
	/>
</svg>
