<?xml version="1.0" encoding="UTF-8"?><svg id="Layer_1" xmlns="http://www.w3.org/2000/svg" viewBox="0 0 512 512"><defs><style>.cls-1{fill:#0071bc;}.cls-2{fill:#e6e6e6;}.cls-3{fill:#fff;}.cls-4{fill:#b3b3b3;}.cls-5{fill:#29abe2;}</style></defs><polygon class="cls-1" points="71.35 460.82 30.26 0 481.74 0 440.61 460.74 255.73 512 71.35 460.82"/><polygon class="cls-5" points="256.38 472.8 405.59 431.75 440.54 38.38 256.38 38.38 256.38 472.8"/><polygon class="cls-4" points="124.31 207.68 129.26 264.11 256.38 207.68 256.38 151.15 124.31 207.68"/><polygon class="cls-2" points="397.17 90.81 256.38 151.15 256.38 207.68 392.32 147.25 397.17 90.81"/><polygon class="cls-2" points="256.38 355.34 255.94 355.4 192.9 338.47 188.78 293.46 132.04 293.46 139.96 382.14 255.93 414.25 256.38 414.14 256.38 355.34"/><polygon class="cls-3" points="256.38 207.68 256.38 264.11 325.4 264.11 319.13 337.9 256.38 355.39 256.38 414.19 371.96 382.08 387.18 207.68 256.38 207.68"/><polygon class="cls-2" points="256.38 207.68 124.31 207.68 129.26 264.11 256.38 264.11 256.38 207.68"/><polygon class="cls-2" points="256.38 147.25 256.38 90.81 255.81 90.81 114.27 90.81 119.28 147.25 256.38 147.25"/><polygon class="cls-3" points="256.38 90.81 256.38 146.54 256.38 147.25 392.32 147.25 397.17 90.81 256.38 90.81"/></svg>