<?xml version="1.0" encoding="UTF-8"?><svg id="Layer_1" xmlns="http://www.w3.org/2000/svg" viewBox="0 0 512 512"><defs><style>.cls-1{fill:#f26522;}.cls-2{fill:#fff;}</style></defs><path class="cls-1" d="M0,0H512V512H0V0Z"/><path class="cls-2" d="M211.07,319.92h78.31v-21.31h-54.13v-33.01h49.91v-21.31h-49.91v-30.9h54.13v-21.31h-78.31v127.84h0Zm182.92-34.74c0-25.53-1.73-31.1-36.09-39.35-22.07-5.37-22.46-5.76-22.46-20.35,0-11.13,2.88-14.59,19.2-14.59,11.13,0,23.61,1.54,34.17,3.84l2.69-20.35c-12.67-2.88-26.11-4.22-37.24-4.22-32.44,0-42.99,11.52-42.99,34.74,0,27.07,4.22,33.02,35.13,39.93,23.03,4.99,23.42,6.14,23.42,20.35,0,12.28-2.88,15.93-20.35,15.93-12.67,0-24.18-2.3-36.08-5.95l-4.22,19c8.45,4.03,25.34,7.68,39.93,7.68,37.81,0,44.91-12.48,44.91-36.66h0Zm44.53-47.6c0-19.58,9.41-23.42,32.05-23.42,4.03,0,12.48,.58,18.04,1.73l1.54-19.58c-5.76-1.34-14.97-2.3-22.07-2.3-34.93,0-52.98,10.75-52.98,44.53v46.64c0,22.07,6.53,36.66,39.54,36.66,30.14,0,39.35-14.97,39.35-34.93v-9.21c0-22.07-9.41-31.67-32.63-31.67-8.25,0-16.12,1.15-22.84,3.46v-11.9h0Zm19.19,28.6c8.45,0,12.86,2.88,12.86,12.09v9.41c0,9.79-3.84,14.01-15.93,14.01s-16.12-3.46-16.12-14.01v-17.47c5.37-2.3,12.28-4.03,19.19-4.03h0Z"/></svg>