<?xml version="1.0" encoding="UTF-8"?><svg id="Layer_1" xmlns="http://www.w3.org/2000/svg" viewBox="0 0 512 512"><defs><style>.cls-1{fill:#de4c36;}</style></defs><path class="cls-1" d="M502.14,233.2L278.64,9.71c-12.86-12.87-33.74-12.87-46.62,0l-46.41,46.41,58.87,58.87c13.68-4.62,29.37-1.52,40.28,9.38,10.96,10.98,14.04,26.8,9.3,40.52l56.74,56.74c13.73-4.73,29.57-1.67,40.53,9.31,15.32,15.32,15.32,40.14,0,55.47-15.33,15.33-40.15,15.33-55.49,0-11.53-11.54-14.37-28.46-8.54-42.66l-52.91-52.91v139.25c3.83,1.9,7.33,4.4,10.37,7.42,15.32,15.32,15.32,40.14,0,55.48-15.33,15.32-40.16,15.32-55.47,0-15.32-15.34-15.32-40.16,0-55.48,3.67-3.67,8.04-6.58,12.84-8.56V188.41c-4.81-1.96-9.18-4.87-12.84-8.56-11.61-11.59-14.4-28.63-8.45-42.88l-58.04-58.04L9.55,232.16c-12.88,12.88-12.88,33.76,0,46.64l223.51,223.49c12.87,12.87,33.74,12.87,46.62,0l222.46-222.46c12.87-12.88,12.87-33.77,0-46.64"/></svg>