<?xml version="1.0" encoding="UTF-8"?><svg id="Layer_1" xmlns="http://www.w3.org/2000/svg" viewBox="0 0 512 512"><defs><style>.cls-1{fill:#ebeaea;}.cls-2{fill:#e54f26;}.cls-3{fill:#fff;}.cls-4{fill:#f16529;}</style></defs><polygon class="cls-2" points="482.2 0 256 0 256 0 29.8 0 72.19 459.89 256 512 256 512 256 512 256 512 256 512 439.74 459.89 482.2 0"/><polygon class="cls-4" points="256 37.46 256 473.05 256 473.05 404.84 430.86 441.09 37.46 256 37.46"/><polygon class="cls-3" points="398.29 93.89 113.64 93.89 129.57 266.09 129.91 265.01 324.38 265.01 318.03 337.85 256 355.73 193.02 337.58 189.24 293.5 132.07 293.5 140.24 381.59 256 414.46 371.76 381.59 387.7 208.72 181.34 208.72 176.01 151.07 393.03 151.07 398.29 93.89"/><path class="cls-1" d="M256,93.89H113.64l15.93,172.2,.34-1.08h126.09v-56.29h-74.66l-5.33-57.65h79.99v-57.17Zm-66.76,199.6h-57.17l8.17,88.09,115.76,32.8v-58.66l-62.98-18.15-3.78-44.08Z"/></svg>