<?xml version="1.0" encoding="UTF-8"?><svg id="Layer_1" xmlns="http://www.w3.org/2000/svg" viewBox="0 0 512 512"><defs><style>.cls-1{fill:#c2bfbf;}.cls-2{fill:#6cac48;}.cls-3{fill:#599636;}</style></defs><path class="cls-3" d="M254.39-1.04l13.73,25.78c3.09,4.76,6.43,8.97,10.37,12.89,11.54,11.4,22.3,23.57,32.21,36.42,23.26,30.54,38.94,64.45,50.14,101.12,6.72,22.4,10.37,45.39,10.64,68.63,1.13,69.48-22.69,129.14-70.72,178.72-7.81,7.86-16.25,15.08-25.23,21.57-4.76,0-7.01-3.65-8.97-7.01-3.57-6.23-5.95-13.07-7.01-20.17-1.69-8.41-2.8-16.81-2.25-25.49v-3.92c-.39-.84-4.58-386.56-2.91-388.54h0Z"/><path class="cls-2" d="M254.39-1.89c-.56-1.13-1.13-.27-1.69,.27,.27,5.63-1.69,10.64-4.76,15.43-3.38,4.76-7.84,8.41-12.33,12.33-24.91,21.57-44.52,47.62-60.22,76.76-20.89,39.22-31.66,81.24-34.72,125.49-1.4,15.96,5.05,72.28,10.08,88.52,13.73,43.14,38.38,79.28,70.31,110.66,7.84,7.55,16.23,14.56,24.91,21.3,2.52,0,2.8-2.25,3.38-3.92,1.11-3.58,1.95-7.23,2.52-10.93l5.63-42.01L254.39-1.89Z"/><path class="cls-1" d="M268.12,461.16c.56-6.43,3.65-11.76,7.01-17.08-3.38-1.4-5.88-4.18-7.84-7.28-1.69-2.94-3.09-6.03-4.18-9.24-3.92-11.76-4.76-24.11-5.88-36.13v-7.28c-1.4,1.13-1.69,10.64-1.69,12.05-.82,12.71-2.5,25.34-5.05,37.82-.84,5.05-1.4,10.08-4.5,14.56,0,.56,0,1.13,.27,1.96,5.05,14.85,6.43,29.97,7.28,45.39v5.63c0,6.72-.27,5.3,5.3,7.55,2.25,.84,4.76,1.13,7.01,2.8,1.69,0,1.96-1.4,1.96-2.52l-.84-9.24v-25.78c-.27-4.5,.56-8.97,1.13-13.18l.02-.02Z"/></svg>