<?xml version="1.0" encoding="UTF-8"?><svg id="Layer_1" xmlns="http://www.w3.org/2000/svg" viewBox="0 0 512 512"><defs><style>.cls-1{fill:#cf649a;}</style></defs><path class="cls-1" d="M440.38,284.43c-17.87,.1-33.34,4.39-46.31,10.78-4.79-9.48-9.58-17.77-10.38-23.95-.9-7.19-2-11.58-.9-20.16,1.1-8.58,6.09-20.76,6.09-21.76-.1-.9-1.1-5.29-11.38-5.39-10.28-.1-19.16,2-20.16,4.69s-2.99,8.88-4.29,15.27c-1.8,9.38-20.56,42.62-31.24,60.08-3.49-6.79-6.49-12.78-7.09-17.57-.9-7.19-2-11.58-.9-20.16,1.1-8.58,6.09-20.76,6.09-21.76-.1-.9-1.1-5.29-11.38-5.39-10.28-.1-19.16,2-20.16,4.69s-2.1,9.08-4.29,15.27c-2.1,6.19-27.05,61.68-33.54,76.15-3.29,7.39-6.19,13.27-8.28,17.27-2.1,3.99-.1,.3-.3,.7-1.8,3.39-2.79,5.29-2.79,5.29v.1c-1.4,2.5-2.89,4.89-3.59,4.89-.5,0-1.5-6.69,.2-15.87,3.69-19.26,12.68-49.3,12.58-50.4,0-.5,1.7-5.79-5.79-8.48-7.29-2.69-9.88,1.8-10.48,1.8s-1.1,1.6-1.1,1.6c0,0,8.08-33.83-15.47-33.83-14.77,0-35.13,16.07-45.21,30.74-6.39,3.49-19.96,10.88-34.33,18.76-5.49,2.99-11.18,6.19-16.57,9.08l-1.1-1.2c-28.54-30.44-81.34-52-79.15-92.92,.8-14.87,5.99-54.1,101.4-101.6,78.15-38.92,140.73-28.25,151.61-4.49,15.47,33.93-33.44,97.01-114.68,106.09-30.94,3.49-47.21-8.48-51.3-12.97-4.29-4.69-4.89-4.89-6.49-3.99-2.59,1.4-1,5.59,0,8.08,2.4,6.29,12.38,17.47,29.34,23.06,14.87,4.89,51.2,7.59,95.12-9.38,49.2-19.06,87.63-71.96,76.35-116.18-11.48-45.01-86.13-59.78-156.7-34.73-42.02,14.97-87.53,38.33-120.27,68.97C4.62,181.93-1.56,213.67,1.03,226.84c9.08,47.01,73.86,77.65,99.81,100.31-1.3,.7-2.5,1.4-3.59,2-12.97,6.39-62.38,32.24-74.76,59.58-13.97,30.94,2.2,53.2,12.97,56.19,33.34,9.28,67.47-7.39,85.93-34.83,18.36-27.45,16.17-63.08,7.69-79.35l-.3-.6,10.18-5.99c6.59-3.89,13.08-7.49,18.76-10.58-3.19,8.68-5.49,18.96-6.69,33.93-1.4,17.57,5.79,40.32,15.27,49.3,4.19,3.89,9.18,3.99,12.28,3.99,10.98,0,15.97-9.08,21.46-19.96,6.79-13.27,12.78-28.64,12.78-28.64,0,0-7.49,41.62,12.97,41.62,7.49,0,14.97-9.68,18.36-14.67v.1s.2-.3,.6-1c.42-.62,.82-1.25,1.2-1.9v-.2c2.99-5.19,9.68-17.07,19.66-36.73,12.87-25.35,25.25-57.09,25.25-57.09,0,0,1.2,7.78,4.89,20.56,2.19,7.59,6.99,15.87,10.68,23.95-2.99,4.19-4.79,6.59-4.79,6.59l.1,.1c-2.39,3.19-5.09,6.59-7.88,9.98-10.18,12.18-22.36,26.05-23.95,30.04-1.9,4.69-1.5,8.18,2.2,10.98,2.69,2,7.49,2.39,12.58,2,9.18-.6,15.57-2.89,18.76-4.29,4.99-1.8,10.68-4.49,16.17-8.48,9.98-7.38,16.07-17.86,15.47-31.84-.3-7.69-2.79-15.27-5.89-22.46,.9-1.3,1.8-2.6,2.69-3.99,15.77-23.06,27.95-48.41,27.95-48.41,0,0,1.2,7.78,4.89,20.56,1.9,6.49,5.69,13.57,9.08,20.56-14.77,12.08-24.05,26.05-27.25,35.23-5.89,16.97-1.3,24.65,7.39,26.45,3.89,.8,9.48-1,13.67-2.79,5.19-1.7,11.48-4.59,17.27-8.88,9.98-7.39,19.56-17.67,19.06-31.54-.3-6.39-2-12.68-4.29-18.66,12.58-5.19,28.84-8.18,49.5-5.69,44.41,5.19,53.2,32.94,51.5,44.51-1.7,11.58-10.98,17.97-14.07,19.96-3.09,1.9-4.09,2.6-3.79,3.99,.4,2.1,1.8,2,4.49,1.6,3.69-.6,23.35-9.48,24.15-30.84,1.2-27.45-24.85-57.39-71.06-57.09h0ZM97.84,399.91c-14.67,16.07-35.33,22.16-44.11,16.97-9.48-5.49-5.79-29.14,12.28-46.21,10.98-10.38,25.25-19.96,34.63-25.85,2.1-1.3,5.29-3.19,9.08-5.49,.6-.4,1-.6,1-.6,.7-.4,1.5-.9,2.3-1.4,6.69,24.35,.3,45.71-15.17,62.58h0Zm107.29-72.96c-5.09,12.48-15.87,44.51-22.36,42.72-5.59-1.5-8.98-25.75-1.1-49.7,3.99-12.08,12.48-26.45,17.47-32.04,8.09-8.98,16.87-11.98,19.06-8.28,2.59,4.79-9.88,39.52-13.07,47.31Zm88.53,42.32c-2.2,1.1-4.19,1.9-5.09,1.3-.7-.4,.9-1.9,.9-1.9,0,0,11.08-11.88,15.47-17.37,2.5-3.19,5.49-6.89,8.68-11.08v1.2c0,14.37-13.77,23.95-19.96,27.85h0Zm68.27-15.57c-1.6-1.2-1.4-4.89,3.99-16.47,2.1-4.59,6.89-12.28,15.17-19.56,1,2.99,1.6,5.89,1.5,8.58-.1,17.97-12.87,24.65-20.66,27.45Z"/></svg>