<?xml version="1.0" encoding="UTF-8"?><svg id="Layer_1" xmlns="http://www.w3.org/2000/svg" viewBox="0 0 512 512"><defs><style>.cls-1{fill:#1070b3;}.cls-2{fill:#2489ca;}.cls-3{fill:#0877b9;}.cls-4{fill:#3c99d4;}</style></defs><path class="cls-2" d="M4.87,179.37s-12.47-8.99,2.49-20.99l34.87-31.18s9.98-10.5,20.52-1.35l321.74,243.59v116.81s-.16,18.34-23.69,16.32L4.87,179.37Z"/><path class="cls-1" d="M87.8,254.66L4.87,330.05s-8.52,6.34,0,17.67l38.5,35.02s9.14,9.82,22.65-1.35l87.92-66.66-66.15-60.07Z"/><path class="cls-3" d="M233.39,255.28l152.09-116.13-.99-116.18s-6.5-25.36-28.16-12.16L153.94,195.01l79.45,60.27Z"/><path class="cls-4" d="M360.8,502.72c8.83,9.04,19.54,6.08,19.54,6.08l118.52-58.4c15.17-10.34,13.04-23.17,13.04-23.17V78.46c0-15.33-15.69-20.63-15.69-20.63L393.48,8.32c-22.45-13.87-37.15,2.49-37.15,2.49,0,0,18.91-13.61,28.16,12.16V484.12c0,3.17-.68,6.29-2.03,9.09-2.7,5.46-8.57,10.55-22.65,8.42l.99,1.09Z"/></svg>