<?xml version="1.0" encoding="UTF-8"?><svg id="Layer_1" xmlns="http://www.w3.org/2000/svg" viewBox="0 0 512 512"><defs><style>.cls-1{fill:none;}.cls-2{fill:#f24e1e;}.cls-3{fill:#ff7262;}.cls-4{fill:#a259ff;}.cls-5{fill:#0acf83;}.cls-6{fill:#1abcfe;}</style></defs><path class="cls-1" d="M85.37,.05H426.63V511.95H85.37V.05Z"/><path class="cls-6" d="M256,256c0-47.12,38.2-85.32,85.32-85.32s85.32,38.2,85.32,85.32-38.2,85.32-85.32,85.32-85.32-38.2-85.32-85.32Z"/><path class="cls-5" d="M85.37,426.63c0-47.12,38.2-85.32,85.32-85.32h85.32v85.32c0,47.12-38.2,85.32-85.32,85.32s-85.32-38.2-85.32-85.32Z"/><path class="cls-3" d="M256,.05V170.68h85.32c47.12,0,85.32-38.2,85.32-85.32S388.44,.05,341.32,.05h-85.32Z"/><path class="cls-2" d="M85.37,85.37c0,47.12,38.2,85.32,85.32,85.32h85.32V.05h-85.32C123.56,.05,85.37,38.25,85.37,85.37h0Z"/><path class="cls-4" d="M85.37,256c0,47.12,38.2,85.32,85.32,85.32h85.32V170.68h-85.32c-47.12,0-85.32,38.2-85.32,85.32h0Z"/></svg>