<?xml version="1.0" encoding="UTF-8"?><svg id="Layer_1" xmlns="http://www.w3.org/2000/svg" xmlns:xlink="http://www.w3.org/1999/xlink" viewBox="0 0 512 512"><defs><style>.cls-1{fill:url(#linear-gradient);}.cls-2{fill:#2684ff;}.cls-3{fill:url(#linear-gradient-2);}</style><linearGradient id="linear-gradient" x1="-265.01" y1="-18.9" x2="-265.1" y2="-18.99" gradientTransform="translate(309963.2 -21823.36) scale(1168.16 -1161.32)" gradientUnits="userSpaceOnUse"><stop offset=".18" stop-color="#0052cc"/><stop offset="1" stop-color="#2684ff"/></linearGradient><linearGradient id="linear-gradient-2" x1="-264.66" y1="-18.54" x2="-264.76" y2="-18.64" gradientTransform="translate(309433.32 -21288.08) scale(1168.17 -1161.32)" xlink:href="#linear-gradient"/></defs><path class="cls-2" d="M489.36,1.37H244.12c0,61.14,49.56,110.7,110.7,110.7h45.18v43.62c.04,61.08,49.55,110.59,110.63,110.63V22.64c0-11.75-9.52-21.27-21.27-21.27Z"/><path class="cls-1" d="M368.02,123.56H122.78c.04,61.08,49.55,110.59,110.63,110.63h45.18v43.76c.08,61.08,49.62,110.56,110.7,110.56V144.84c0-11.75-9.53-21.28-21.28-21.28h0Z"/><path class="cls-3" d="M246.6,245.68H1.37c0,61.14,49.57,110.7,110.7,110.7h45.32v43.62c.04,61.03,49.46,110.52,110.49,110.63v-243.67c0-11.75-9.53-21.28-21.28-21.28h0Z"/></svg>