<?xml version="1.0" encoding="UTF-8"?><svg id="Layer_1" xmlns="http://www.w3.org/2000/svg" xmlns:xlink="http://www.w3.org/1999/xlink" viewBox="0 0 512 512"><defs><style>.cls-1{fill:none;}.cls-2{fill:url(#linear-gradient);}.cls-3{mask:url(#mask);}.cls-4{fill:#333;}.cls-5{fill:#539e43;}.cls-6{fill:url(#linear-gradient-2);}.cls-7{fill:url(#linear-gradient-3);}.cls-7,.cls-8,.cls-9,.cls-10,.cls-11{fill-rule:evenodd;}.cls-8{fill:url(#linear-gradient-4);}.cls-9{fill:url(#linear-gradient-6);}.cls-10{fill:url(#linear-gradient-7);}.cls-11{fill:url(#linear-gradient-5);}.cls-12{mask:url(#mask-1);}</style><linearGradient id="linear-gradient" x1="796.66" y1="513.26" x2="796.57" y2="513.11" gradientTransform="translate(-423693.82 311375.71) scale(532.1 -606.29)" gradientUnits="userSpaceOnUse"><stop offset="0" stop-color="#41873f"/><stop offset=".33" stop-color="#418b3d"/><stop offset=".64" stop-color="#419637"/><stop offset=".93" stop-color="#3fa92d"/><stop offset="1" stop-color="#3fae2a"/></linearGradient><mask id="mask" x="134.48" y="170.91" width="109.14" height="124.35" maskUnits="userSpaceOnUse"/><linearGradient id="linear-gradient-2" x1="796.54" y1="513.18" x2="796.78" y2="513.34" gradientTransform="translate(-413768.85 311249.23) scale(519.69 -606.04)" gradientUnits="userSpaceOnUse"><stop offset=".14" stop-color="#41873f"/><stop offset=".4" stop-color="#54a044"/><stop offset=".71" stop-color="#66b848"/><stop offset=".91" stop-color="#6cc04a"/></linearGradient><mask id="mask-1" x="134.48" y="170.91" width="109.14" height="124.35" maskUnits="userSpaceOnUse"/><linearGradient id="linear-gradient-3" x1="454.65" y1="597.08" x2="474.63" y2="597.08" gradientTransform="translate(-1908.04 1173.09) scale(4.51 -1.69)" gradientUnits="userSpaceOnUse"><stop offset=".09" stop-color="#6cc04a"/><stop offset=".29" stop-color="#66b848"/><stop offset=".6" stop-color="#54a044"/><stop offset=".86" stop-color="#41873f"/></linearGradient><linearGradient id="linear-gradient-4" x1="796.42" y1="513.19" x2="796.64" y2="513.19" gradientTransform="translate(-413311.24 311498.66) scale(519.13 -606.53)" xlink:href="#linear-gradient-3"/><linearGradient id="linear-gradient-5" x1="-254.08" y1="650.53" x2="-234.1" y2="650.53" gradientTransform="translate(641.8 2834.63) scale(1.69 -3.95)" xlink:href="#linear-gradient-3"/><linearGradient id="linear-gradient-6" x1="793.07" y1="516.09" x2="793.49" y2="516.09" gradientTransform="translate(-212875.14 86768.37) scale(268.59 -167.59)" xlink:href="#linear-gradient-3"/><linearGradient id="linear-gradient-7" x1="793.55" y1="516.62" x2="793.29" y2="515.78" gradientTransform="translate(-212875.14 86768.37) scale(268.59 -167.59)" xlink:href="#linear-gradient"/></defs><path class="cls-5" d="M253.22,412.76c-1.74,0-3.36-.46-4.86-1.27l-15.39-9.14c-2.32-1.27-1.16-1.74-.46-1.97,3.12-1.04,3.7-1.27,6.94-3.12,.35-.23,.81-.12,1.16,.12l11.8,7.06c.46,.23,1.04,.23,1.39,0l46.18-26.73c.46-.23,.69-.69,.69-1.27v-53.35c0-.58-.23-1.04-.69-1.27l-46.18-26.62c-.46-.23-1.04-.23-1.39,0l-46.18,26.62c-.46,.23-.69,.81-.69,1.27v53.35c0,.46,.23,1.04,.69,1.27l12.62,7.29c6.83,3.47,11.11-.58,11.11-4.63v-52.66c0-.69,.58-1.39,1.39-1.39h5.9c.69,0,1.39,.58,1.39,1.39v52.66c0,9.14-4.98,14.47-13.66,14.47-2.66,0-4.74,0-10.65-2.89l-12.15-6.94c-3.01-1.74-4.86-4.98-4.86-8.45v-53.35c0-3.47,1.85-6.71,4.86-8.45l46.18-26.73c2.89-1.62,6.83-1.62,9.72,0l46.18,26.73c3.01,1.74,4.86,4.98,4.86,8.45v53.35c0,3.47-1.85,6.71-4.86,8.45l-46.18,26.73c-1.51,.69-3.24,1.04-4.86,1.04h0Zm14.24-36.69c-20.25,0-24.42-9.26-24.42-17.13,0-.69,.58-1.39,1.39-1.39h6.02c.69,0,1.27,.46,1.27,1.16,.93,6.13,3.59,9.14,15.86,9.14,9.72,0,13.89-2.2,13.89-7.41,0-3.01-1.16-5.21-16.32-6.71-12.62-1.27-20.48-4.05-20.48-14.12,0-9.37,7.87-14.93,21.06-14.93,14.81,0,22.1,5.09,23.03,16.2,0,.35-.12,.69-.35,1.04-.23,.23-.58,.46-.93,.46h-6.02c-.58,0-1.16-.46-1.27-1.04-1.39-6.36-4.98-8.45-14.47-8.45-10.65,0-11.92,3.7-11.92,6.48,0,3.36,1.51,4.4,15.86,6.25,14.24,1.85,20.95,4.51,20.95,14.47-.12,10.18-8.45,15.97-23.15,15.97Z"/><path class="cls-4" d="M109.95,204.09c0-2.08-1.16-4.05-3.01-5.09l-49.07-28.24c-.81-.46-1.74-.69-2.66-.81h-.46c-.93,0-1.85,.35-2.66,.81L3.01,199c-1.85,1.04-3.01,3.01-3.01,5.09l.12,75.92c0,1.04,.58,2.08,1.5,2.55,.93,.58,2.08,.58,2.89,0l29.16-16.67c1.85-1.04,3.01-3.01,3.01-5.09v-35.53c0-2.08,1.16-4.05,3.01-5.09l12.38-7.18c.93-.58,1.97-.81,3.01-.81s2.08,.23,2.89,.81l12.38,7.18c1.85,1.04,3.01,3.01,3.01,5.09v35.53c0,2.08,1.16,4.05,3.01,5.09l29.16,16.67c.93,.58,2.08,.58,3.01,0,.93-.46,1.51-1.51,1.51-2.55l-.12-75.92h0Zm235.86-104.51c-.93-.46-2.08-.46-2.89,0-.93,.58-1.5,1.5-1.5,2.55v75.23c0,.69-.35,1.39-1.04,1.85-.69,.35-1.39,.35-2.08,0l-12.27-7.06c-1.83-1.04-4.07-1.04-5.9,0l-49.07,28.35c-1.85,1.04-3.01,3.01-3.01,5.09v56.59c0,2.08,1.16,4.05,3.01,5.09l49.07,28.35c1.83,1.04,4.07,1.04,5.9,0l49.07-28.35c1.85-1.04,3.01-3.01,3.01-5.09V121.11c0-2.2-1.16-4.17-3.01-5.21l-29.28-16.32h0Zm-4.51,143.97c0,.58-.23,1.04-.69,1.27l-16.78,9.72c-.47,.23-1.03,.23-1.51,0l-16.78-9.72c-.46-.23-.69-.81-.69-1.27v-19.44c0-.58,.23-1.04,.69-1.27l16.78-9.72c.47-.23,1.03-.23,1.51,0l16.78,9.72c.46,.23,.69,.81,.69,1.27v19.44h0Zm167.81-19.91c1.85-1.04,2.89-3.01,2.89-5.09v-13.77c0-2.08-1.16-4.05-2.89-5.09l-48.72-28.24c-1.83-1.04-4.07-1.04-5.9,0l-49.07,28.35c-1.85,1.04-3.01,3.01-3.01,5.09v56.59c0,2.08,1.16,4.05,3.01,5.09l48.72,27.78c1.85,1.04,4.05,1.04,5.79,0l29.51-16.43c.93-.46,1.51-1.51,1.51-2.55s-.58-2.08-1.51-2.55l-49.3-28.35c-.93-.58-1.5-1.5-1.5-2.55v-17.71c0-1.04,.58-2.08,1.5-2.55l15.39-8.8c.92-.58,2.09-.58,3.01,0l15.39,8.8c.93,.58,1.51,1.5,1.51,2.55v13.89c0,1.04,.58,2.08,1.5,2.55,.93,.58,2.08,.58,3.01,0l29.16-17.01h0Z"/><path class="cls-5" d="M456.68,220.99c.35-.23,.81-.23,1.16,0l9.37,5.44c.35,.23,.58,.58,.58,1.04v10.88c0,.46-.23,.81-.58,1.04l-9.37,5.44c-.35,.23-.81,.23-1.16,0l-9.37-5.44c-.35-.23-.58-.58-.58-1.04v-10.88c0-.46,.23-.81,.58-1.04l9.37-5.44Z"/><g><path id="a" class="cls-2" d="M192,171.69c-1.83-1.04-4.07-1.04-5.9,0l-48.72,28.12c-1.85,1.04-2.89,3.01-2.89,5.09v56.36c0,2.08,1.16,4.05,2.89,5.09l48.72,28.12c1.83,1.04,4.07,1.04,5.9,0l48.72-28.12c1.85-1.04,2.89-3.01,2.89-5.09v-56.36c0-2.08-1.16-4.05-2.89-5.09l-48.72-28.12Z"/><g class="cls-3"><g><path class="cls-1" d="M185.98,171.69l-48.84,28.12c-1.85,1.04-3.13,3.01-3.13,5.09v56.36c0,1.39,.58,2.66,1.5,3.7l54.86-93.98c-1.39-.23-3.01-.12-4.4,.69h0Zm4.75,123.37c.46-.12,.93-.35,1.39-.58l48.84-28.12c1.85-1.04,3.01-3.01,3.01-5.09v-56.36c0-1.5-.69-3.01-1.74-4.05l-51.5,94.21h0Z"/><path class="cls-6" d="M240.84,199.81l-48.95-28.12c-.48-.24-.99-.44-1.51-.58l-54.86,93.98c.45,.55,1,1.02,1.62,1.39l48.95,28.12c1.39,.81,3.01,1.04,4.51,.58l51.5-94.21c-.35-.46-.81-.81-1.27-1.16h0Z"/></g></g><g class="cls-12"><g><path class="cls-1" d="M243.96,261.27v-56.36c0-2.08-1.27-4.05-3.12-5.09l-48.96-28.12c-.57-.35-1.19-.59-1.85-.69l53.58,91.54c.23-.35,.35-.81,.35-1.27h0Zm-106.82-61.46c-1.85,1.04-3.12,3.01-3.12,5.09v56.36c0,2.08,1.39,4.05,3.12,5.09l48.96,28.12c1.16,.69,2.43,.93,3.82,.69l-52.43-95.48-.35,.12h0Z"/><path class="cls-7" d="M184.48,161.39l-.69,.35h.93l-.23-.35Z"/><path class="cls-8" d="M240.96,266.36c1.39-.81,2.43-2.2,2.89-3.7l-53.7-91.66c-1.39-.23-2.89-.12-4.17,.69l-48.61,28.01,52.43,95.59c.76-.12,1.5-.36,2.2-.69l48.96-28.24h0Z"/><path class="cls-11" d="M245.47,265.43l-.35-.58v.81l.35-.23h0Z"/><path class="cls-9" d="M240.96,266.36l-48.84,28.12c-.69,.35-1.43,.59-2.2,.69l.93,1.74,54.16-31.36v-.69l-1.39-2.32c-.23,1.62-1.27,3.01-2.66,3.82h0Z"/><path class="cls-10" d="M240.96,266.36l-48.84,28.12c-.69,.35-1.43,.59-2.2,.69l.93,1.74,54.16-31.36v-.69l-1.39-2.32c-.23,1.62-1.27,3.01-2.66,3.82h0Z"/></g></g></g></svg>