<?xml version="1.0" encoding="UTF-8"?><svg id="Layer_1" xmlns="http://www.w3.org/2000/svg" viewBox="0 0 512 512"><defs><style>.cls-1{fill:#61dafb;}</style></defs><path class="cls-1" d="M512.25,256.05c0-33.95-42.52-66.13-107.7-86.08,15.04-66.44,8.36-119.3-21.1-136.22-6.79-3.97-14.73-5.85-23.4-5.85v23.3c4.81,0,8.67,.94,11.91,2.72,14.21,8.15,20.37,39.17,15.57,79.08-1.15,9.82-3.03,20.16-5.33,30.71-20.47-5.01-42.83-8.88-66.33-11.39-14.1-19.33-28.73-36.88-43.46-52.23,34.06-31.65,66.02-48.99,87.75-48.99V27.8c-28.73,0-66.33,20.47-104.36,55.99-38.02-35.31-75.63-55.57-104.36-55.57v23.3c21.62,0,53.69,17.24,87.75,48.68-14.62,15.36-29.25,32.8-43.14,52.13-23.61,2.51-45.96,6.37-66.44,11.49-2.4-10.45-4.18-20.58-5.43-30.29-4.91-39.91,1.15-70.93,15.25-79.18,3.13-1.88,7.21-2.72,12.01-2.72V28.32c-8.77,0-16.71,1.88-23.61,5.85-29.35,16.92-35.94,69.68-20.79,135.91C42.06,190.14-.25,222.21-.25,256.05s42.52,66.13,107.7,86.08c-15.04,66.44-8.36,119.3,21.1,136.22,6.79,3.97,14.73,5.85,23.5,5.85,28.73,0,66.33-20.47,104.36-55.99,38.02,35.31,75.63,55.57,104.36,55.57,8.77,0,16.71-1.88,23.61-5.85,29.35-16.92,35.94-69.68,20.79-135.91,64.77-19.95,107.08-52.13,107.08-85.97h0Zm-136.01-69.68c-3.87,13.48-8.67,27.37-14.1,41.26-4.28-8.36-8.77-16.71-13.68-25.07-4.81-8.36-9.92-16.51-15.04-24.44,14.83,2.19,29.15,4.91,42.83,8.25h0Zm-47.84,111.25c-8.15,14.1-16.51,27.47-25.18,39.91-15.57,1.36-31.34,2.09-47.22,2.09s-31.55-.73-47.01-1.98c-8.67-12.43-17.13-25.7-25.28-39.7-7.94-13.68-15.15-27.58-21.73-41.58,6.48-14,13.79-28,21.62-41.68,8.15-14.1,16.51-27.47,25.18-39.91,15.57-1.36,31.34-2.09,47.22-2.09s31.55,.73,47.01,1.98c8.67,12.43,17.13,25.7,25.28,39.7,7.94,13.68,15.15,27.58,21.73,41.58-6.58,14-13.79,28-21.62,41.68h0Zm33.74-13.58c5.64,14,10.45,28,14.42,41.58-13.68,3.34-28.1,6.16-43.04,8.36,5.12-8.04,10.24-16.3,15.04-24.76,4.81-8.36,9.3-16.82,13.58-25.18h0Zm-105.93,111.46c-9.72-10.03-19.43-21.21-29.04-33.43,9.4,.42,19.01,.73,28.73,.73s19.53-.21,29.04-.73c-9.4,12.22-19.12,23.4-28.73,33.43Zm-77.72-61.53c-14.83-2.19-29.15-4.91-42.83-8.25,3.87-13.48,8.67-27.37,14.1-41.26,4.28,8.36,8.77,16.71,13.68,25.07,4.91,8.36,9.92,16.51,15.04,24.44ZM255.69,116.59c9.72,10.03,19.43,21.21,29.04,33.43-9.4-.42-19.01-.73-28.73-.73s-19.53,.21-29.04,.73c9.4-12.22,19.12-23.4,28.73-33.43Zm-77.3,61.53c-5.12,8.04-10.24,16.3-15.04,24.76-4.81,8.36-9.3,16.71-13.58,25.07-5.64-14-10.45-28-14.42-41.58,13.68-3.24,28.1-6.06,43.04-8.25h0Zm-94.54,130.79c-36.98-15.77-60.9-36.46-60.9-52.86s23.92-37.19,60.9-52.86c8.98-3.87,18.8-7.31,28.94-10.55,5.95,20.47,13.79,41.79,23.5,63.62-9.61,21.73-17.34,42.93-23.19,63.31-10.34-3.24-20.16-6.79-29.25-10.66h0Zm56.2,149.28c-14.21-8.15-20.37-39.17-15.57-79.08,1.15-9.82,3.03-20.16,5.33-30.71,20.47,5.01,42.83,8.88,66.33,11.39,14.1,19.33,28.73,36.88,43.46,52.23-34.06,31.65-66.02,48.99-87.75,48.99-4.7-.1-8.67-1.04-11.8-2.82h0Zm247.79-79.6c4.91,39.91-1.15,70.93-15.25,79.18-3.13,1.88-7.21,2.72-12.01,2.72-21.62,0-53.69-17.24-87.75-48.68,14.62-15.36,29.25-32.8,43.14-52.13,23.61-2.51,45.96-6.37,66.44-11.49,2.4,10.55,4.28,20.68,5.43,30.4Zm40.22-69.68c-8.98,3.87-18.8,7.31-28.94,10.55-5.95-20.47-13.79-41.79-23.5-63.62,9.61-21.73,17.34-42.93,23.19-63.31,10.34,3.24,20.16,6.79,29.35,10.66,36.98,15.77,60.9,36.46,60.9,52.86-.1,16.4-24.03,37.19-61.01,52.86h0Z"/><circle class="cls-1" cx="255.9" cy="256.05" r="47.74"/></svg>